:SAMPLES-PER-SECOND 30
:FULLY-SPECIFIED
:DEGREES
33
root  75.2624 38.1993 0.748245 -116.977 -82.3402 112.692
RightUpLeg  1.35163 -1.2709 -13.025
RightLeg  49.3473 5.65943 6.68643
RightFoot  4.20607 -1.51989 11.1258
RightToes  -4.65663e-010 0 -3.6325e-017
Spine  4.67614 1.8241 -5.26366
Spine1  5.97183 2.65814 -6.68636
HEad  -14.3658 2.99754 -4.73768
LeftShoulder1  -0.496619 4.75481 -33.5433
LeftArm  -2.59863 11.4955 -35.9924
LeftForeArm  35.7916 -8.48705 -8.75824
LeftHand  -0.155235 9.3209 -2.9026
RightShoulder  -1.13014 -6.48382 31.3788
RightArm  21.2334 -4.82245 44.4785
RightForeArm  19.3865 12.3238 7.43293
RightHand  0.0413737 2.28302 0.437688
LeftUpLeg  -9.68405 4.53626 -9.22173
LeftLeg  17.2919 7.96732 1.13571
LeftFoot  -4.93013 -0.272347 5.39012
LeftToes  8.74931e-010 -1.05764e-010 1.2659e-011
34
root  74.6069 38.1765 0.905446 -121.164 -81.7196 116.367
RightUpLeg  -3.38159 0.22787 -13.5225
RightLeg  56.1218 4.59374 6.91052
RightFoot  6.01015 -1.34945 9.16682
RightToes  -4.65663e-010 0 -3.6325e-017
Spine  4.79275 1.69022 -6.94455
Spine1  6.841 2.10644 -5.81108
HEad  -15.1661 3.37522 -4.81363
LeftShoulder1  -0.5546 4.89254 -33.7801
LeftArm  -0.681127 6.89981 -37.0891
LeftForeArm  35.4439 -8.98055 -9.28467
LeftHand  -0.229712 10.3197 -3.89715
RightShoulder  -1.04848 -6.29381 31.0258
RightArm  20.2713 -5.30729 44.4346
RightForeArm  18.0393 12.077 7.38608
RightHand  0.0223842 4.26773 -0.0126676
LeftUpLeg  -8.21901 4.47544 -9.53865
LeftLeg  17.7517 8.85531 1.04867
LeftFoot  -6.39409 -0.182957 5.12662
LeftToes  8.74931e-010 -1.05764e-010 1.2659e-011
35
root  73.936 38.1972 1.02499 -120.667 -82.1447 115.85
RightUpLeg  -7.81903 0.700201 -13.1588
RightLeg  60.1076 3.59069 6.27538
RightFoot  2.26611 -1.29746 10.9508
RightToes  -4.65663e-010 0 -3.6325e-017
Spine  5.17035 1.04331 -7.91798
Spine1  6.46185 1.03459 -4.87207
HEad  -15.3439 4.1545 -4.55908
LeftShoulder1  -0.588732 4.95625 -34.356
LeftArm  0.999491 2.62828 -37.3733
LeftForeArm  34.7088 -9.72645 -9.51991
LeftHand  -0.26178 10.736 -4.21186
RightShoulder  -1.00974 -6.20432 30.8216
RightArm  19.0545 -6.2019 44.2861
RightForeArm  16.6536 11.8736 7.2284
RightHand  0.000192248 3.72655 -0.255518
LeftUpLeg  -7.12122 4.57665 -9.29594
LeftLeg  17.9473 8.52535 0.837607
LeftFoot  -7.68294 -0.114475 5.03826
LeftToes  8.74931e-010 -1.05764e-010 1.2659e-011
36
root  73.2374 38.2698 1.15902 -119.009 -82.7958 113.934
RightUpLeg  -11.7084 1.15306 -12.3529
RightLeg  61.4548 3.15079 5.77416
RightFoot  2.58341 -1.03214 8.59772
RightToes  -4.65663e-010 0 -3.6325e-017
Spine  6.35841 0.506646 -9.02025
Spine1  5.16947 -0.0642431 -2.96601
HEad  -15.4028 4.61202 -4.47555
LeftShoulder1  -0.652469 5.10291 -34.6175
LeftArm  -0.0279137 -1.62309 -38.5406
LeftForeArm  36.1458 -9.34762 -9.45989
LeftHand  -0.241258 10.6769 -3.83398
RightShoulder  -0.990721 -6.18854 30.332
RightArm  18.815 -7.49404 44.1604
RightForeArm  15.4135 12.7948 6.78824
RightHand  -0.00184949 3.6681 -0.286717
LeftUpLeg  -5.45036 4.71781 -8.96876
LeftLeg  17.6913 7.83907 0.599744
LeftFoot  -8.71736 -0.0631718 5.03629
LeftToes  8.74931e-010 -1.05764e-010 1.2659e-011
37
root  72.5068 38.3237 1.28502 -116.416 -83.5097 110.933
RightUpLeg  -14.5724 1.24938 -11.6737
RightLeg  59.9169 3.06153 5.23508
RightFoot  0.572818 -0.995788 9.54778
RightToes  -4.65663e-010 0 -3.6325e-017
Spine  6.81789 -0.18967 -9.23462
Spine1  4.93126 -0.903699 -2.47349
HEad  -15.0082 4.87506 -3.92812
LeftShoulder1  -0.65882 5.16372 -33.5832
LeftArm  0.421389 -5.15349 -40.5011
LeftForeArm  35.4341 -10.4958 -9.03413
LeftHand  -0.233858 10.5063 -3.84898
RightShoulder  -1.05333 -6.32213 30.8252
RightArm  18.6104 -8.0662 43.9518
RightForeArm  15.5075 13.4049 6.46067
RightHand  0.0254653 4.16784 0.0313697
LeftUpLeg  -3.5283 4.85252 -8.64271
LeftLeg  17.2726 7.14976 0.460524
LeftFoot  -9.79376 -0.00722278 4.90687
LeftToes  8.74931e-010 -1.05764e-010 1.2659e-011
38
root  71.7609 38.3616 1.38219 -120.824 -84.0068 115.147
RightUpLeg  -17.1912 1.86076 -10.6018
RightLeg  55.9143 3.18301 4.66121
RightFoot  -0.783576 -0.881743 9.4631
RightToes  -4.65663e-010 0 -3.6325e-017
Spine  4.91094 -0.555876 -9.32979
Spine1  7.98453 -1.24517 -1.72367
HEad  -15.1516 6.14313 -3.62743
LeftShoulder1  -0.711597 5.37487 -31.8459
LeftArm  -0.671473 -9.94617 -43.7266
LeftForeArm  35.3595 -10.3705 -8.73943
LeftHand  -0.165056 8.7938 -3.76849
RightShoulder  -0.987005 -6.17455 30.3806
RightArm  17.8721 -7.21419 45.0757
RightForeArm  15.3662 13.0776 6.50722
RightHand  -0.0223849 3.96357 -0.546181
LeftUpLeg  -1.84698 5.40983 -7.95651
LeftLeg  16.9449 6.77438 0.27812
LeftFoot  -11.0126 0.0519657 5.07391
LeftToes  8.74931e-010 -1.05764e-010 1.2659e-011
39
root  71.0139 38.3704 1.48396 -124.371 -84.3739 118.462
RightUpLeg  -18.9229 2.34643 -9.62028
RightLeg  49.501 3.27491 3.76346
RightFoot  -1.63764 -0.815532 9.45666
RightToes  -4.65663e-010 0 -3.6325e-017
Spine  3.50491 -0.97851 -9.48079
Spine1  10.5534 -1.71417 -0.893267
HEad  -16.2024 8.01293 -3.34675
LeftShoulder1  -0.630431 5.18842 -31.2745
LeftArm  1.66543 -13.5082 -45.4547
LeftForeArm  32.1209 -12.7195 -8.0538
LeftHand  -0.168493 9.58663 -3.06523
RightShoulder  -0.879839 -5.92678 29.7201
RightArm  17.0784 -6.25529 46.4145
RightForeArm  16.2194 12.5942 6.57697
RightHand  -0.0162691 4.44481 -0.473881
LeftUpLeg  -0.0892503 5.8778 -7.46372
LeftLeg  16.4916 6.49114 0.128033
LeftFoot  -12.0983 0.108557 5.41302
LeftToes  8.74931e-010 -1.05764e-010 1.2659e-011
40
root  70.2634 38.3806 1.60309 -117.911 -84.9242 112.078
RightUpLeg  -19.8051 1.32523 -9.08549
RightLeg  40.9179 3.6316 3.10854
RightFoot  -1.83008 -0.805106 9.50815
RightToes  -4.65663e-010 0 -3.6325e-017
Spine  3.63169 -1.5824 -9.72872
Spine1  10.4006 -2.46591 0.159582
HEad  -15.871 7.97118 -3.41302
LeftShoulder1  -0.570132 5.04219 -30.9513
LeftArm  5.02365 -16.1281 -46.6386
LeftForeArm  28.2551 -14.8883 -7.37603
LeftHand  -0.12416 9.93727 -1.66674
RightShoulder  -0.882099 -5.94471 29.549
RightArm  17.17 -6.2234 46.8014
RightForeArm  16.6459 12.6284 6.57598
RightHand  0.00916045 3.54851 -0.133221
LeftUpLeg  1.48556 5.74852 -7.48127
LeftLeg  15.6928 5.88986 0.0920036
LeftFoot  -12.9151 0.154274 5.58947
LeftToes  8.74931e-010 -1.05764e-010 1.2659e-011
41
root  69.4648 38.4141 1.7259 -116.425 -85.279 110.655
RightUpLeg  -19.744 0.419233 -8.33488
RightLeg  30.6375 4.03389 2.35571
RightFoot  -1.60601 -0.784221 9.06043
RightToes  -4.65663e-010 0 -3.6325e-017
Spine  4.82469 -1.59216 -9.35197
Spine1  8.14804 -2.61563 1.25405
HEad  -14.8496 6.58049 -3.51135
LeftShoulder1  -0.380999 4.51848 -31.3868
LeftArm  9.41099 -17.3088 -47.0696
LeftForeArm  24.3073 -17.3542 -6.42045
LeftHand  -0.057832 9.26483 -0.241438
RightShoulder  -0.949182 -6.14234 29.4086
RightArm  17.2509 -7.3233 46.4843
RightForeArm  16.9505 12.7074 6.52837
RightHand  0.0271511 3.77611 0.0806865
LeftUpLeg  3.34617 5.89282 -7.25492
LeftLeg  14.5715 5.57956 -0.125372
LeftFoot  -13.6992 0.195744 5.49998
LeftToes  8.74931e-010 -1.05764e-010 1.2659e-011
42
root  68.6198 38.3904 1.83081 -114.977 -85.1822 109.405
RightUpLeg  -19.3069 -1.22716 -7.74443
RightLeg  19.8107 5.42657 1.8652
RightFoot  -1.63519 -0.799112 9.25994
RightToes  -4.65663e-010 0 -3.6325e-017
Spine  6.03707 -1.3935 -9.11139
Spine1  6.38089 -2.39624 1.72171
HEad  -14.4941 5.53155 -3.51326
LeftShoulder1  -0.35682 4.46516 -30.9838
LeftArm  13.1408 -18.1565 -48.3629
LeftForeArm  20.9911 -20.0091 -5.07887
LeftHand  -0.0557738 7.8704 -0.533655
RightShoulder  -0.857285 -5.86365 29.6974
RightArm  18.0919 -8.82712 45.6778
RightForeArm  15.6456 13.8709 6.20928
RightHand  0.054779 4.01217 0.406034
LeftUpLeg  5.04081 5.79496 -7.53548
LeftLeg  13.5906 5.66278 -0.182955
LeftFoot  -14.4768 0.239013 5.54788
LeftToes  8.74931e-010 -1.05764e-010 1.2659e-011
